<?xml version="1.0" encoding="utf-8"?>
<!-- Generator: Adobe Illustrator 18.1.0, SVG Export Plug-In . SVG Version: 6.00 Build 0)  -->
<!DOCTYPE svg PUBLIC "-//W3C//DTD SVG 1.0//EN" "http://www.w3.org/TR/2001/REC-SVG-20010904/DTD/svg10.dtd">
<svg version="1.0" id="Layer_1" xmlns="http://www.w3.org/2000/svg" xmlns:xlink="http://www.w3.org/1999/xlink" x="0px" y="0px"
	 viewBox="0 0 512 512" enable-background="new 0 0 512 512" xml:space="preserve">
<path fill="#ED1C2E" d="M492,38.1c9.3,23.1,19,93.3-129,74c-7.7-1-15-1.8-22.2-2.4c-2.9-4.4-6.4-8.6-10.6-12.6
	c34.1-0.2,56.3-7.5,68.5-18.3c14.9-13.3,14.1-37.4-5.6-47c7.1,20.2-3.2,51-79.8,46.6c-5.4-0.3-10.8-0.2-16.2,0
	c-12.8-4.1-27.7-6.5-45.3-6.5c-1,0-1.8,0.1-2.7,0.2c53.3-17.8,47-66.5,14.9-66.5c-8.6,0-17.3,3.7-22.2,11.5
	c25.6-6,42.2,34.3-20.5,54c15.3-11,12.5-33.1-9.6-30.4c2.8,2.2,4.6,5.5,4.6,9.6c0,28.5-29.7,22.3-59.3,52.2l0.9-0.4
	c-13.4,13.3-20.7,30.3-20.7,50.1c0,32.9,19.3,60.3,68.1,77.8c33.5,12,66.3,20,87.1,49.8l-5.4,3.8c-45.7-57.9-167.6-38.9-167.6,90.5
	c0,81.3,50.4,132.7,116,132.7c27.3,0,61.1-7.7,87.3-45.5v35.9h80v-121c0-6.3,0.4-11.7,1.6-16.6c5.3-23.5,25.5-37.7,55.4-37.7
	c9.1,0,15.5,0.9,22.5,1.9v-70.1c-5.9-1-9.6-1.5-17.1-1.5c-25.7,0-57.1,14.8-70.5,50h-2.1v-44.5h-32c-8.1-29.5-28.1-48.2-52-61.3
	c29.8-13.2,44-39.1,40.7-64.1c2.1,0.5,4.1,0.8,6.2,1.3C524.5,175.5,523.1,57.2,492,38.1z M204.7,151.3c-1.8-1.4-3.5-2.9-5-4.5
	c4.8-27.1,34.4-50.5,103.3-50.2c4.8,3.4,8.9,7.2,12.2,11.4C253.7,105.9,213,118.8,204.7,151.3z M257.1,83.7c1.4,0,2.5,0.3,3.8,0.3
	c-33.4,8.7-61.5,26.8-68.7,50c-0.7-2.6-1.5-5.1-1.5-8.1C190.7,107.4,217.8,83.7,257.1,83.7z M198.4,378.5c0-30.9,11-71.9,45.4-71.9
	c29.7,0,43.6,25.2,43.6,69.9c0,51.5-20.3,72.8-44.5,72.8C214,449.3,198.4,416.9,198.4,378.5z M296,190.3
	c-28.7-13.3-60-21.1-80.9-32.5c1.6-4.9,4.2-9.3,7.8-13c17.1-17.6,62.9-18.5,76,22.5c6.3-14.5,2-34.5-16.3-42.2
	c13.2-0.4,27.6,0.5,42.5,2.7C330.9,151.6,320.6,177.9,296,190.3z"/>
</svg>
