<?xml version="1.0" encoding="utf-8"?>
<!-- Generator: Adobe Illustrator 17.1.0, SVG Export Plug-In . SVG Version: 6.00 Build 0)  -->
<!DOCTYPE svg PUBLIC "-//W3C//DTD SVG 1.1//EN" "http://www.w3.org/Graphics/SVG/1.1/DTD/svg11.dtd">
<svg version="1.1" id="Layer_1" xmlns="http://www.w3.org/2000/svg" xmlns:xlink="http://www.w3.org/1999/xlink" x="0px" y="0px"
	 viewBox="222.3 299.7 166 190.7" enable-background="new 222.3 299.7 166 190.7" xml:space="preserve">
<g>
	<g>
		<path d="M385.9,407.7c0-0.3,0.1-1,0.1-2.2c0-5.9-1.4-22.5-13.4-52.1c-4-9.8-5-17.7-5-23.2c0-5.4,1-8.4,1-8.4l1.7-4.9l-4.8,1.9
			c-6.8,2.7-39.8-4.8-59-10.2l-0.3-0.1h-0.3h-1v0h-0.3l-0.3,0.1c-19.2,5.4-52.2,12.9-59,10.2l-4.8-1.9l1.7,4.9c0,0.1,1,3,1,8.4
			c0,5.5-1,13.4-5,23.2c-12,29.7-13.4,46.2-13.4,52.1c0,1.2,0.1,1.9,0.1,2.2c0,0.4-0.1,1.1-0.1,2.3c0,7.2,2.2,28.4,26.3,45.1
			c14.6,10.1,21.5,13.1,28.9,16.2c6.1,2.6,12.5,5.3,24,12.2l1.2,0.7l1.4-0.7c11.6-7,18-9.7,24.2-12.3c7.4-3.1,14.3-6.1,28.9-16.2
			c24.1-16.7,26.3-37.8,26.3-45.1C386,408.8,386,408.1,385.9,407.7z M357,451.2c-14.2,9.8-20.6,12.6-28.1,15.7
			c-5.8,2.5-12.4,5.3-23.5,11.9c-11.1-6.6-17.7-9.4-23.5-11.9c-7.5-3.2-13.9-5.9-28.1-15.7c-22.3-15.5-24.3-34.8-24.3-41.1
			c0-1.2,0.1-1.9,0.1-2.1l0-0.3l0-0.3c0,0-0.1-0.6-0.1-1.8c0-5.1,1.1-21.2,13-50.5c4.3-10.5,5.4-19,5.4-25c0-2.6-0.2-4.7-0.5-6.3
			c14.8,1.1,52.1-9,57.8-10.6c0.2,0,0.2,0,0.4,0c5.7,1.6,43,11.8,57.8,10.6c-0.3,1.6-0.5,3.7-0.5,6.3c0,6,1.1,14.5,5.4,25
			c11.9,29.3,13,45.4,13,50.5c0,1.2-0.1,1.8-0.1,1.8l0,0.3l0,0.3c0,0.2,0.1,0.9,0.1,2.1C381.3,416.4,379.3,435.7,357,451.2z"/>
	</g>
</g>
<path fill="#EF3E33" d="M315.2,367.1l14.1-1.1c0,0-0.6,9.8,8.7,11.4c0,0,3.7-6.6,12.1-6.6c8.4,0,9.7,9.7,9.7,9.7
	s-0.8,10.6-13.2,10.6l-7.4-1l-23.9-9.5V367.1L315.2,367.1z"/>
<path fill="#EF3E33" d="M296.6,368.3v7.6c0,0-20.1-1.4-20.1,12.6c0,14,21.7,10.3,21.7,10.3h35.4l6.3,2.4c0,0,23,14.8,23,18.7
	c0,0-11.8,19.5-47.7,23.5l0.2-12.2c0,0,17.9-0.6,16.6-10.5c0,0,0.8-8.7-13.7-8.7l-26.4-0.3c0,0-27.9-2.7-33.8-9.2
	c-6-6.4-8.4-10.6-8.4-10.6l3.4-6.8c0,0,8.9-10,17.7-13.5C270.9,371.5,282.8,367.8,296.6,368.3L296.6,368.3z"/>
<path fill="#EF3E33" d="M296.6,443l-8.2-1.6c0,0-10.9-5.8-12.9-7.4c0,0-3.7,1.8-9.8,0.8c0,0-1.9-0.3-3.9-6.6c0,0,0.2-4.2-4.5-4.5
	c0,0-6.1-0.3-6.4-7.9c0,0-0.3-7.2,9-8c0,0,4.7-0.6,10,6.4c0,0,6,9.2,12.7,12.2c0,0,2.7,2.7,14,5.3V443L296.6,443z"/>
<path d="M353.5,345.8c-5.6,0-8.4,3.3-6.6,6.2l-0.9,0.2c-4.3-0.6-5.7-5.1-6-9.9c-6.3-0.5-8.5-2.8-9.6-6.9c-8,10-16.8,10.3-24.8,10.3
	s-16.7-0.3-24.8-10.3c-1.1,4.2-3.4,6.5-9.6,6.9c-0.3,4.8-1.7,9.2-6,9.9l-0.9-0.2c1.8-2.9-1-6.2-6.6-6.2s-8.2,6.8-8.2,12.3
	s6,12.7,14.9,12.7c8.9,0,13-1.9,16.8-14.8h15h0.3v42.3h18.7v-42.3H330c3.9,12.9,8,14.8,16.8,14.8s14.9-7.3,14.9-12.7
	S359.2,345.8,353.5,345.8L353.5,345.8z"/>
<path d="M296.2,411.4h19.4v34.8l5,5.1v11.5c0,0-7.5-3.6-14.4-3.6c-6.9,0-14.9,3.5-14.9,3.5v-10.6l4.9-5.3V411.4L296.2,411.4z"/>
</svg>
