<?xml version="1.0" encoding="utf-8"?>
<!-- Generator: Adobe Illustrator 18.1.0, SVG Export Plug-In . SVG Version: 6.00 Build 0)  -->
<svg version="1.1" id="Calque_1" xmlns="http://www.w3.org/2000/svg" xmlns:xlink="http://www.w3.org/1999/xlink" x="0px" y="0px"
	 viewBox="430 -490 879 1000" enable-background="new 430 -490 879 1000" xml:space="preserve">
<path fill="#FFFFFF" d="M430,143c0,98,33.7,183.7,101,257s154,110,260,110c105.3,0,191.7-36.7,259-110c67.3-72,101-157.7,101-257
	c0-52-9-100.7-27-146c-26.7,16.7-55,28-85,34c14.7,34,22,72,22,114c0,50.7-12,98-36,142c-24.7,44-57.7,77.7-99,101
	c-41.3,24-86.3,36-135,36c-50,0-95.3-12-136-36c-42-24.7-74.7-58.3-98-101c-24.7-43.3-37-90.7-37-142c0-78,26.7-145.3,80-202
	c53.3-55.3,117-83,191-83c34,0,66.7,6.3,98,19c2.7-26,11.7-54.7,27-86c-38-14-79.7-21-125-21c-106.7,0-195.3,39.3-266,118
	C461.7-38.7,430,45.7,430,143z M710,396l56,4c49.3-31.3,90.8-67.7,124.5-109s57.8-82.7,72.5-124s25-83.3,31-126c4-27.3,6-54,6-80
	c0-14-0.7-27.3-2-40c-3.3-36.7-7.5-69.5-12.5-98.5S975.3-229.3,970-246l-9-25c-14.7-45.3-29.2-85-43.5-119s-24.8-56.3-31.5-67
	l-11-17c26,13.3,47,29.3,63,48c15.3,19.3,24.7,37,28,53c2.7,13.3,4,26.3,4,39v7c-0.7,14.7-2.7,26.3-6,35l-5,13
	c2.7,38.7,4.3,76,5,112c0,34.7-1.7,68.7-5,102c-6,66.7-16.2,122.3-30.5,167c-14.3,44.7-30.8,85.2-49.5,121.5s-37.8,64.8-57.5,85.5
	s-37.8,37.8-54.5,51.5s-30.3,23.2-41,28.5L710,396z M985-241c2.7-26.7,10.3-48,23-64l18-25c8-9.3,21-18.2,39-26.5
	c18-8.3,34-14.5,48-18.5l21-6c24-5.3,46.2-17,66.5-35s34.8-35,43.5-51l13-23c27.3,38,43.7,81,49,129c2.7,21.3,3.7,40.3,3,57
	c0,22.7-2,42.3-6,59l-11,45c-8,22-19.2,42-33.5,60s-26.5,30.3-36.5,37l-15,11c-22.7,13.3-45,20-67,20l-109-53
	c38.7-21.3,72.3-43,101-65s49.8-41.2,63.5-57.5c13.7-16.3,24.7-31.2,33-44.5s13.2-23.7,14.5-31l2-10c-12,26.7-28.2,51-48.5,73
	s-41,39.3-62,52s-41.2,23.5-60.5,32.5s-35,15.2-47,18.5l-18,5c-16.7-29.3-25-55.7-25-79C984-234.3,984.3-237.7,985-241z"/>
</svg>
